# xmcd
#
# Track frame offsets: 
#        182
#        14506
#        29874
#        44996
#        56864
#        71735
#        85236
#        99443
#        114459
#        127888
#        141750
#        156750
#        170856
#        184446
#        199277
#        213454
#        228420
#        243492
#        257532
#        269335
#        284865
#        295675
#        309229
#        324171
#
# Disc length: 4514 seconds
#
# Revision: 1
# Processed by: cddbd v1.5.2PL0 Copyright (c) Steve Scherf et al.
# Submitted via: ExactAudioCopyFreeDBPlugin 1.0
#
DISCID=7c11a018
DTITLE=Buddy Johnson - The Chronological Buddy Johnson and His Orchest
DTITLE=ra, 1950-1951
DYEAR=2002
DGENRE=Rhythm and Blues
TTITLE0=I Need You
TTITLE1=Jeanette
TTITLE2=When Day is Done
TTITLE3=You Gotta Walk That Chalk Line
TTITLE4=I Cry
TTITLE5=Satisfy My Soul
TTITLE6=We'd Only Start it All Over Again
TTITLE7=Dr. Jive Jives
TTITLE8=Jet
TTITLE9=No More Love
TTITLE10=Ever Since the One I Love's Been Gone
TTITLE11=Be Careful
TTITLE12=What Will I Tell My Heart?
TTITLE13=Stormy Weather
TTITLE14=At Last
TTITLE15=A Handful of Stars
TTITLE16=Two Cigarettes in the Dark
TTITLE17=My Reverie
TTITLE18=Am I Blue
TTITLE19=I'm in Your Power
TTITLE20=Till My Baby Comes Back
TTITLE21=My Aching Heart
TTITLE22=I'm Gonna Jump in the River
TTITLE23=Root Man Blues
EXTD=
EXTT0=
EXTT1=
EXTT2=
EXTT3=
EXTT4=
EXTT5=
EXTT6=
EXTT7=
EXTT8=
EXTT9=
EXTT10=
EXTT11=
EXTT12=
EXTT13=
EXTT14=
EXTT15=
EXTT16=
EXTT17=
EXTT18=
EXTT19=
EXTT20=
EXTT21=
EXTT22=
EXTT23=
PLAYORDER=
